<?xml version="1.0" standalone="no"?>
<!DOCTYPE svg PUBLIC "-//W3C//DTD SVG 20010904//EN"
 "http://www.w3.org/TR/2001/REC-SVG-20010904/DTD/svg10.dtd">
<svg version="1.0" xmlns="http://www.w3.org/2000/svg"
 width="310.000000pt" height="310.000000pt" viewBox="0 0 310.000000 310.000000"
 preserveAspectRatio="xMidYMid meet">
<metadata>
Created by potrace 1.14, written by Peter Selinger 2001-2017
</metadata>
<g transform="translate(0.000000,310.000000) scale(0.100000,-0.100000)"
fill="#000000" stroke="none">
<path d="M2090 2960 c0 -6 -4 -8 -10 -5 -5 3 -10 -1 -10 -10 0 -9 -4 -14 -9
-10 -5 3 -13 -5 -18 -17 -10 -30 -11 -88 -1 -88 4 0 8 -7 8 -15 0 -14 38 -41
53 -37 4 1 7 -3 7 -9 0 -5 3 -8 8 -6 4 2 15 -4 25 -15 9 -10 14 -18 10 -18 -5
0 -2 -4 6 -9 22 -14 23 -65 2 -90 -10 -11 -20 -18 -23 -15 -6 5 -23 -45 -20
-58 1 -5 -3 -8 -9 -8 -6 0 -8 -7 -5 -16 3 -8 1 -24 -4 -34 -7 -13 -7 -21 0
-25 6 -4 7 -11 4 -17 -4 -5 -8 -26 -10 -46 -6 -54 -9 -66 -18 -81 -7 -11 -6
-12 5 -6 12 8 12 6 1 -8 -8 -9 -11 -21 -7 -27 3 -5 2 -10 -3 -10 -5 0 -8 -13
-7 -30 1 -16 -2 -30 -7 -30 -5 0 -7 -4 -4 -8 3 -5 -1 -20 -9 -35 -7 -14 -11
-28 -9 -30 3 -2 -1 -17 -7 -33 -7 -16 -11 -35 -10 -41 1 -7 -3 -13 -8 -13 -6
0 -8 -7 -5 -15 4 -8 1 -15 -5 -15 -6 0 -11 -8 -11 -18 0 -10 -5 -23 -12 -30
-7 -7 -8 -12 -4 -12 5 0 1 -11 -8 -25 -9 -14 -13 -25 -9 -25 4 0 -2 -7 -13
-16 -10 -8 -13 -12 -5 -9 14 8 -16 -45 -34 -57 -6 -5 -4 -8 4 -8 11 0 10 -5
-5 -20 -33 -33 -43 -48 -37 -54 3 -3 -2 -8 -11 -12 -9 -3 -14 -9 -12 -13 3 -4
-8 -22 -24 -41 -16 -19 -27 -37 -24 -42 3 -4 0 -8 -6 -8 -6 0 -18 -7 -26 -15
-9 -8 -12 -15 -7 -15 4 0 -4 -10 -18 -23 -14 -12 -28 -30 -32 -40 -4 -10 -10
-16 -15 -13 -4 2 -17 -9 -27 -25 -11 -16 -24 -29 -28 -29 -4 0 -19 -10 -32
-22 -64 -59 -73 -66 -79 -61 -3 4 -6 1 -6 -6 0 -7 -4 -9 -10 -6 -5 3 -10 -1
-10 -10 0 -9 -4 -13 -10 -10 -5 3 -10 1 -10 -4 0 -6 -7 -11 -15 -11 -9 0 -18
-6 -21 -14 -3 -8 -12 -12 -20 -9 -8 3 -14 1 -14 -4 0 -12 -116 -74 -124 -66
-3 4 -6 1 -6 -6 0 -8 -6 -11 -16 -7 -8 3 -13 2 -10 -3 7 -11 -53 -33 -67 -24
-5 3 -7 1 -3 -5 7 -11 -31 -28 -41 -18 -4 3 -14 -1 -24 -10 -10 -9 -25 -14
-34 -10 -9 3 -14 2 -11 -3 3 -5 -1 -12 -10 -15 -8 -3 -12 -2 -9 4 3 5 -7 3
-21 -5 -15 -8 -31 -12 -36 -9 -4 3 -8 2 -8 -3 0 -7 -18 -11 -72 -16 -10 -1
-18 -5 -18 -10 0 -5 -7 -7 -15 -4 -8 4 -17 1 -21 -5 -4 -7 -9 -6 -15 3 -7 11
-9 12 -9 1 0 -9 -10 -12 -28 -11 -15 2 -33 0 -40 -4 -6 -5 -16 -6 -21 -3 -5 4
-12 0 -14 -6 -4 -10 -6 -10 -6 0 -1 8 -6 10 -13 5 -7 -4 -31 -9 -53 -9 -22 -1
-40 -3 -40 -4 0 -1 -36 -3 -80 -4 -44 -1 -85 -5 -92 -9 -6 -4 -15 -2 -19 4 -5
8 -3 9 6 4 9 -5 11 -4 6 4 -4 6 -13 8 -19 4 -7 -4 -30 -8 -52 -8 -43 -2 -85
-19 -85 -36 0 -6 -6 -9 -13 -6 -8 3 -14 0 -14 -6 -1 -7 -5 -25 -11 -42 -5 -16
-7 -39 -5 -50 2 -11 5 -26 5 -32 1 -7 5 -13 10 -13 4 0 8 -4 8 -10 0 -13 37
-50 43 -44 3 3 14 -6 25 -20 10 -14 22 -23 25 -19 4 3 9 -2 13 -11 3 -9 12
-16 20 -16 8 0 14 -4 14 -10 0 -5 7 -10 15 -10 8 0 15 -4 15 -10 0 -5 7 -10
15 -10 8 0 15 -5 15 -11 0 -5 4 -8 9 -4 6 3 13 0 18 -7 9 -14 92 -58 109 -58
6 0 17 -6 24 -14 6 -8 19 -12 27 -9 12 5 14 3 8 -7 -6 -10 -4 -12 9 -7 9 4 19
1 21 -6 3 -6 17 -13 31 -14 14 0 31 -7 38 -13 8 -10 8 -11 -2 -6 -6 4 -12 3
-12 -3 0 -5 -8 -10 -17 -10 -32 1 -57 -8 -61 -19 -2 -7 -10 -12 -17 -12 -13 0
-31 -36 -27 -52 1 -5 -2 -8 -7 -8 -10 0 -10 -72 1 -80 3 -3 8 -12 10 -20 4
-20 22 -39 31 -33 4 2 7 -4 7 -13 0 -10 3 -14 7 -11 3 4 15 -1 26 -10 11 -10
17 -12 13 -5 -7 11 -4 11 13 0 12 -7 21 -16 21 -21 0 -4 5 -5 10 -2 6 3 10 1
10 -4 0 -6 3 -10 8 -9 4 2 27 -6 52 -16 25 -11 48 -20 52 -20 3 -1 10 -4 14
-8 4 -5 18 -8 31 -8 13 0 23 -4 23 -8 0 -4 8 -9 18 -10 32 -3 47 -8 62 -17 8
-5 29 -10 45 -11 17 -1 30 -3 30 -4 0 -4 42 -11 86 -14 25 -1 50 -5 55 -8 5
-3 27 -6 49 -6 22 0 43 -1 48 -2 20 -6 33 -5 39 5 5 6 8 6 8 -2 0 -7 6 -10 13
-8 29 11 77 12 77 1 0 -7 3 -8 8 -1 4 6 14 10 22 10 8 -1 21 3 28 8 8 6 12 5
12 -3 0 -9 4 -9 13 -2 7 6 25 9 39 8 17 -2 25 1 21 7 -4 6 0 8 9 4 9 -3 21 0
27 6 8 8 11 7 11 -4 0 -8 3 -10 8 -4 12 17 52 36 52 25 0 -6 11 -3 25 6 14 9
25 13 25 8 0 -4 5 -3 12 4 7 7 22 12 35 12 13 0 23 4 23 10 0 5 16 12 35 16
21 4 32 10 28 17 -4 6 0 8 10 4 10 -3 17 -3 17 2 0 5 11 12 25 15 14 4 25 11
25 17 0 6 4 8 9 4 5 -3 17 2 25 11 9 8 16 13 16 9 0 -3 10 3 22 14 11 11 24
18 28 16 5 -3 11 2 14 11 3 8 10 12 16 9 5 -3 10 -2 10 2 0 5 12 16 28 25 15
9 43 30 62 47 19 17 40 35 47 41 7 5 17 10 23 10 5 0 10 7 10 16 0 8 5 12 10
9 6 -3 10 1 10 10 0 9 5 13 10 10 6 -3 10 -2 10 4 0 5 9 12 20 16 11 3 19 10
17 14 -1 4 25 34 58 66 33 32 51 53 40 45 -11 -8 0 6 25 31 25 25 52 56 60 68
37 57 57 80 63 74 4 -3 7 3 7 15 0 11 5 24 10 27 6 4 7 11 4 17 -4 7 -2 8 5 4
6 -4 14 0 18 11 3 10 15 31 27 47 12 19 15 27 5 21 -7 -4 -4 2 9 15 13 12 21
28 18 35 -2 7 2 16 11 19 8 4 13 13 9 21 -3 8 -2 15 3 15 8 0 18 24 27 64 3
11 9 25 14 31 5 7 7 15 3 19 -4 4 -1 11 6 15 7 5 14 25 14 45 1 20 5 36 10 36
5 0 7 9 4 20 -3 11 -1 20 3 20 5 0 7 11 5 25 -1 14 1 25 6 25 5 0 6 6 3 14 -3
8 0 17 6 21 8 5 8 11 -1 21 -6 8 -8 14 -3 14 5 0 8 24 8 52 -1 29 4 59 10 67
9 12 8 14 -5 9 -12 -5 -14 0 -11 23 3 18 8 26 16 22 6 -4 5 1 -3 10 -7 9 -11
26 -8 37 3 11 2 20 -2 20 -4 0 -6 12 -5 28 1 15 -3 33 -9 40 -6 8 -5 12 4 12
12 0 12 2 0 9 -7 5 -11 13 -7 19 3 6 2 13 -4 17 -5 3 -7 17 -4 31 4 15 2 24
-6 24 -6 0 -9 4 -6 8 3 5 -1 21 -9 36 -10 18 -10 25 -2 20 9 -5 9 -3 0 7 -7 7
-13 21 -13 31 0 10 -4 18 -9 18 -6 0 -8 9 -6 20 2 11 -1 20 -7 20 -5 0 -8 7
-4 15 3 8 1 15 -4 15 -6 0 -9 3 -8 8 1 4 -5 21 -15 38 -9 17 -13 34 -10 38 4
3 1 6 -5 6 -7 0 -12 9 -12 20 0 11 -4 20 -9 20 -5 0 -12 11 -15 25 -4 14 -11
23 -16 20 -6 -3 -7 1 -4 9 3 9 1 16 -5 16 -6 0 -10 3 -10 8 3 20 -2 32 -13 26
-6 -4 -8 -3 -5 3 4 6 -2 21 -13 33 -11 13 -20 29 -20 37 0 7 -7 16 -15 19 -8
4 -15 12 -15 20 0 8 -4 14 -10 14 -5 0 -10 5 -10 10 0 6 -11 23 -24 37 -14 15
-23 30 -20 35 3 4 -3 8 -12 8 -10 0 -14 3 -11 7 4 3 -2 13 -13 20 -11 8 -18
19 -15 24 4 5 1 9 -4 9 -6 0 -20 8 -31 18 -11 9 -25 18 -30 18 -6 1 -15 2 -21
3 -5 0 -8 5 -5 9 2 4 1 14 -4 22 -4 7 -4 24 1 37 6 17 6 22 -2 17 -8 -5 -10 1
-7 20 4 18 1 29 -8 33 -8 3 -11 9 -8 14 3 5 0 9 -5 9 -6 0 -10 3 -9 8 2 13
-15 46 -38 71 -13 14 -21 28 -18 33 3 4 -1 8 -9 8 -7 0 -22 8 -33 19 -29 27
-54 37 -96 40 -23 2 -38 -2 -38 -9z"/>
</g>
</svg>
